<?xml version="1.0" encoding="utf-8"?><svg xmlns="http://www.w3.org/2000/svg" width="30" height="30" viewBox="5 5 30 30" enable-background="new 5 5 30 30"><path fill="#fff" d="M26.536 19.297c.117-.02.224 0 .32.057.096.056.144.155.144.292 0 .146-.067.273-.2.38-.135.105-.29.2-.467.284-.18.083-.363.148-.552.195-.188.043-.337.072-.442.083-.22.702-.555 1.326-1.01 1.867-.46.542-.988.995-1.598 1.355-.605.362-1.26.64-1.96.83-.698.197-1.393.292-2.088.292-1.107 0-2.16-.237-3.153-.71-.993-.475-1.815-1.167-2.468-2.08-.04-.08-.062-.144-.062-.195 0-.1.035-.186.103-.255s.155-.104.254-.104c.072 0 .15.03.235.092.623.553 1.352.825 2.183.82.297 0 .595-.038.893-.114.295-.076.566-.197.815-.363-.147-.08-.267-.188-.36-.32-.094-.132-.14-.277-.14-.438 0-.117.02-.216.06-.298-.09-.03-.206-.08-.338-.155-.134-.072-.264-.16-.388-.26-.123-.097-.228-.206-.312-.326-.083-.117-.125-.235-.125-.352 0-.082.024-.153.076-.217.05-.063.115-.12.19-.17-.206-.128-.398-.315-.577-.564-.177-.247-.266-.496-.266-.743 0-.168.083-.276.25-.327-.178-.18-.318-.382-.42-.615-.106-.233-.157-.476-.157-.722 0-.117.023-.222.072-.317.046-.094.14-.14.282-.14.09 0 .305.067.638.203.333.138.696.29 1.083.46.387.17.757.342 1.113.515.354.172.6.293.743.364.126.07.248.15.36.238.114.088.227.18.338.278.102-.258.222-.527.358-.81.137-.28.288-.55.456-.81.168-.257.352-.5.555-.728.2-.23.43-.416.678-.563.04-.03.1-.046.183-.046.09 0 .158.02.203.06.082-.027.19-.062.318-.1.127-.04.234-.057.32-.057.147 0 .256.068.328.204.158 0 .3.04.43.118.127.078.19.205.19.384 0 .157-.066.29-.202.4.486.22.89.536 1.213.95.32.416.55.878.688 1.383.03.01.087.016.174.016.237 0 .46-.043.67-.127.206-.083.35-.125.432-.125.092 0 .17.037.24.11.066.073.102.155.102.247 0 .117-.05.238-.15.367-.104.134-.187.234-.258.305z"/></svg>