<?xml version="1.0" encoding="utf-8"?><svg xmlns="http://www.w3.org/2000/svg" width="30" height="30" viewBox="5 5 30 30" enable-background="new 5 5 30 30"><path fill="#fff" d="M21.42 15.898c-.274 0-.445.043-.51.135-.064.092-.098.28-.098.563v.73h1.738c.074 0 .148.038.226.116.054.054.077.136.077.24l-.13 1.7c0 .088-.03.158-.088.213-.057.053-.127.076-.21.076H20.81v6.508c0 .09-.03.166-.09.23-.06.062-.132.093-.216.093h-2.01c-.082 0-.155-.03-.214-.093s-.09-.14-.09-.23v-6.506h-.972c-.083 0-.156-.028-.215-.093s-.09-.14-.09-.23v-1.682c0-.09.03-.17.09-.238.06-.068.132-.104.215-.104h.975v-.846c0-1.98.95-2.974 2.852-2.98.64 0 1.24.086 1.808.258.172.057.25.174.227.356l-.21 1.65c-.02.09-.063.162-.124.218-.082.057-.166.072-.24.05-.185-.043-.373-.078-.567-.1s-.37-.03-.52-.03z"/></svg>