<?xml version="1.0" encoding="utf-8"?><svg xmlns="http://www.w3.org/2000/svg" width="30" height="30" viewBox="0 0 30 30"><path fill="#fff" d="M18.932 15c0 2.17-1.76 3.93-3.93 3.93s-3.93-1.76-3.93-3.93c0-.258.025-.512.073-.756H8.5v5.224c0 1.12.91 2.032 2.032 2.032h8.937c1.12 0 2.03-.91 2.03-2.032v-5.224h-2.643c.048.244.075.498.075.756zm.537-6.5H10.53c-1.123 0-2.03.91-2.03 2.03v2.202h3.29c.71-1.005 1.883-1.662 3.21-1.662 1.325 0 2.496.657 3.207 1.662h3.29v-2.2c0-1.122-.91-2.032-2.03-2.032zm.992 2.51c0 .2-.164.36-.362.36h-1.088c-.2 0-.363-.162-.363-.36V9.92c0-.2.162-.362.362-.362H20.1c.2 0 .362.163.362.362v1.09zM17.42 15c0-1.336-1.083-2.42-2.42-2.42-1.334 0-2.417 1.084-2.417 2.42s1.083 2.42 2.418 2.42c1.337 0 2.42-1.084 2.42-2.42z"/></svg>